<mxfile host="app.diagrams.net" modified="2024-04-21T07:10:30.593Z" agent="Mozilla/5.0 (Windows NT 10.0; Win64; x64; rv:125.0) Gecko/20100101 Firefox/125.0" etag="H3abVAYpzccNBJKeMyw9" version="24.2.7" type="github">
  <diagram name="Page-1" id="ZQ5rFF8UfDTRX3QORSim">
    <mxGraphModel dx="1203" dy="859" grid="1" gridSize="10" guides="1" tooltips="1" connect="1" arrows="1" fold="1" page="1" pageScale="1" pageWidth="850" pageHeight="1100" math="0" shadow="0">
      <root>
        <mxCell id="0" />
        <mxCell id="1" parent="0" />
        <mxCell id="KThRyYf9amWl1B7xjah_-1" value="" style="rounded=0;whiteSpace=wrap;html=1;" vertex="1" parent="1">
          <mxGeometry x="80" y="280" width="680" height="40" as="geometry" />
        </mxCell>
      </root>
    </mxGraphModel>
  </diagram>
</mxfile>
